<svg preserveAspectRatio="none" overflow="visible" style="display: block;" width="60" height="60" viewBox="0 0 60 60" fill="none" xmlns="http://www.w3.org/2000/svg">
<g id="Group 16">
<circle id="Ellipse 5" cx="30" cy="30" r="30" fill="#B7FF3C"/>
<g id="Icon / &#60;LightbulbIcon&#62;">
<path id="Vector" fill-rule="evenodd" clip-rule="evenodd" d="M30.4963 14.5C29.0193 14.4998 27.5568 14.7905 26.1922 15.3556C24.8276 15.9207 23.5878 16.749 22.5434 17.7934C21.499 18.8378 20.6707 20.0776 20.1056 21.4422C19.5405 22.8068 19.2498 24.2693 19.25 25.7463C19.25 29.905 23.54 34.1538 23.54 34.1538C24.2713 34.8794 24.8713 36.2388 24.8713 37.1744C24.8713 38.11 25.715 38.875 26.7463 38.875H34.2463C35.2775 38.875 36.1213 38.11 36.1213 37.1744C36.1213 36.2388 36.7213 34.8794 37.4525 34.1538C37.4525 34.1538 41.7425 29.905 41.7425 25.7463C41.7427 24.2693 41.452 22.8068 40.8869 21.4422C40.3218 20.0776 39.4935 18.8378 38.4491 17.7934C37.4047 16.749 36.1649 15.9207 34.8003 15.3556C33.4357 14.7905 31.9732 14.4998 30.4963 14.5ZM30.4963 18.25C32.4836 18.2525 34.3889 19.0431 35.7942 20.4483C37.1994 21.8536 37.99 23.7589 37.9925 25.7463C37.9925 27.6756 35.8456 30.4544 34.8144 31.4913C33.8637 32.4306 33.1044 33.7712 32.6956 35.125H28.2969C27.89 33.7712 27.1306 32.4344 26.1875 31.4988C25.1469 30.4544 23 27.6756 23 25.7463C23.0025 23.7589 23.7931 21.8536 25.1983 20.4483C26.6036 19.0431 28.5089 18.2525 30.4963 18.25ZM36.0556 42.625C36.0556 41.5938 35.2119 40.75 34.1806 40.75H26.6806C25.6494 40.75 24.8056 41.5938 24.8056 42.625V42.6306C24.8056 43.6619 25.6494 44.5056 26.6806 44.5056H34.1806C35.2119 44.5056 36.0556 43.6619 36.0556 42.6306V42.625Z" fill="black"/>
</g>
</g>
</svg>
